<?xml version="1.0" encoding="UTF-8"?>
<svg viewBox="-479.768 -4627.05 3933.551 23640.732" xmlns="http://www.w3.org/2000/svg">
  <g data-mml-node="mo" transform="matrix(1, 0, 0, -1, 770.4033203125, -1263.5634765625)" stroke="currentColor" fill="currentColor" stroke-width="0">
    <path d="M42 46H56Q95 46 103 60V68Q103 77 103 91T103 124T104 167T104 217T104 272T104 329Q104 366 104 407T104 482T104 542T103 586T103 603Q100 622 89 628T44 637H26V660Q26 683 28 683L38 684Q48 685 67 686T104 688Q121 689 141 690T171 693T182 694H185V379Q185 62 186 60Q190 52 198 49Q219 46 247 46H263V0H255L232 1Q209 2 183 2T145 3T107 3T57 1L34 0H26V46H42Z" style="fill: rgb(255, 255, 255);"/>
    <path d="M69 609Q69 637 87 653T131 669Q154 667 171 652T188 609Q188 579 171 564T129 549Q104 549 87 564T69 609ZM247 0Q232 3 143 3Q132 3 106 3T56 1L34 0H26V46H42Q70 46 91 49Q100 53 102 60T104 102V205V293Q104 345 102 359T88 378Q74 385 41 385H30V408Q30 431 32 431L42 432Q52 433 70 434T106 436Q123 437 142 438T171 441T182 442H185V62Q190 52 197 50T232 46H255V0H247Z" transform="matrix(1, 0, 0, 1, 278, 0)" style="fill: rgb(255, 255, 255);"/>
    <path d="M41 46H55Q94 46 102 60V68Q102 77 102 91T102 122T103 161T103 203Q103 234 103 269T102 328V351Q99 370 88 376T43 385H25V408Q25 431 27 431L37 432Q47 433 65 434T102 436Q119 437 138 438T167 441T178 442H181V402Q181 364 182 364T187 369T199 384T218 402T247 421T285 437Q305 442 336 442Q351 442 364 440T387 434T406 426T421 417T432 406T441 395T448 384T452 374T455 366L457 361L460 365Q463 369 466 373T475 384T488 397T503 410T523 422T546 432T572 439T603 442Q729 442 740 329Q741 322 741 190V104Q741 66 743 59T754 49Q775 46 803 46H819V0H811L788 1Q764 2 737 2T699 3Q596 3 587 0H579V46H595Q656 46 656 62Q657 64 657 200Q656 335 655 343Q649 371 635 385T611 402T585 404Q540 404 506 370Q479 343 472 315T464 232V168V108Q464 78 465 68T468 55T477 49Q498 46 526 46H542V0H534L510 1Q487 2 460 2T422 3Q319 3 310 0H302V46H318Q379 46 379 62Q380 64 380 200Q379 335 378 343Q372 371 358 385T334 402T308 404Q263 404 229 370Q202 343 195 315T187 232V168V108Q187 78 188 68T191 55T200 49Q221 46 249 46H265V0H257L234 1Q210 2 183 2T145 3Q42 3 33 0H25V46H41Z" transform="matrix(1, 0, 0, 1, 556, 0)" style="fill: rgb(255, 255, 255);"/>
  </g>
  <g data-mml-node="mi" transform="matrix(0.707000017166, 0, 0, -0.707000017166, 2560.709355000494, -4257.810879950521)" stroke="currentColor" fill="currentColor" stroke-width="0" style="transform-origin: 278.5px 215.5px;">
    <path d="M52 289Q59 331 106 386T222 442Q257 442 286 424T329 379Q371 442 430 442Q467 442 494 420T522 361Q522 332 508 314T481 292T458 288Q439 288 427 299T415 328Q415 374 465 391Q454 404 425 404Q412 404 406 402Q368 386 350 336Q290 115 290 78Q290 50 306 38T341 26Q378 26 414 59T463 140Q466 150 469 151T485 153H489Q504 153 504 145Q504 144 502 134Q486 77 440 33T333 -11Q263 -11 227 52Q186 -10 133 -10H127Q78 -10 57 16T35 71Q35 103 54 123T99 143Q142 143 142 101Q142 81 130 66T107 46T94 41L91 40Q91 39 97 36T113 29T132 26Q168 26 194 71Q203 87 217 139T245 247T261 313Q266 340 266 352Q266 380 251 392T217 404Q177 404 142 372T93 290Q91 281 88 280T72 278H58Q52 284 52 289Z" style="fill: rgb(255, 255, 255);"/>
  </g>
  <g data-mml-node="mo" transform="matrix(0, 0.7070000171661377, 0.7070000171661377, 0, 2670.614013671875, -3753.62646484375)" stroke="currentColor" fill="currentColor" stroke-width="0">
    <path d="M56 237T56 250T70 270H835Q719 357 692 493Q692 494 692 496T691 499Q691 511 708 511H711Q720 511 723 510T729 506T732 497T735 481T743 456Q765 389 816 336T935 261Q944 258 944 250Q944 244 939 241T915 231T877 212Q836 186 806 152T761 85T740 35T732 4Q730 -6 727 -8T711 -11Q691 -11 691 0Q691 7 696 25Q728 151 835 230H70Q56 237 56 250Z" style="fill: rgb(255, 255, 255);"/>
  </g>
  <g data-mml-node="mo" transform="matrix(0.347793012857, 0.615540027618, 0.615540027618, -0.347793012857, 2498.627472811738, -3057.207548959527)" stroke="currentColor" fill="currentColor" stroke-width="0" style="transform-origin: 332.5px 249.5px;">
    <path d="M113 -244Q113 -246 119 -251T139 -263T167 -269Q186 -269 199 -260Q220 -247 232 -218T251 -133T262 -15T276 155T297 367Q300 390 305 438T314 512T325 580T340 647T361 703T390 751T428 784T479 804Q481 804 488 804T501 805Q552 802 581 769T610 695Q610 669 594 657T561 645Q542 645 527 658T512 694Q512 705 516 714T526 729T538 737T548 742L552 743Q552 745 545 751T525 762T498 768Q475 768 460 756T434 716T418 652T407 559T398 444T387 300T369 133Q349 -38 337 -102T303 -207Q256 -306 169 -306Q119 -306 87 -272T55 -196Q55 -170 71 -158T104 -146Q123 -146 138 -159T153 -195Q153 -206 149 -215T139 -230T127 -238T117 -242L113 -244Z" style="fill: rgb(255, 255, 255);"/>
  </g>
  <g data-mml-node="mi" transform="matrix(0.499849051237, 0, 0, -0.499849051237, 2673.989588289372, -2824.548708316139)" stroke="currentColor" fill="currentColor" stroke-width="0" style="transform-origin: 499.5px 215.5px;">
    <path d="M55 217Q55 305 111 373T254 442Q342 442 419 381Q457 350 493 303L507 284L514 294Q618 442 747 442Q833 442 888 374T944 214Q944 128 889 59T743 -11Q657 -11 580 50Q542 81 506 128L492 147L485 137Q381 -11 252 -11Q166 -11 111 57T55 217ZM907 217Q907 285 869 341T761 397Q740 397 720 392T682 378T648 359T619 335T594 310T574 285T559 263T548 246L543 238L574 198Q605 158 622 138T664 94T714 61T765 51Q827 51 867 100T907 217ZM92 214Q92 145 131 89T239 33Q357 33 456 193L425 233Q364 312 334 337Q285 380 233 380Q171 380 132 331T92 214Z" style="fill: rgb(255, 255, 255);"/>
  </g>
  <g data-mml-node="mn" transform="matrix(0.499849051237, 0, 0, -0.499849051237, 2261.631466683201, -2726.687768395109)" stroke="currentColor" fill="currentColor" stroke-width="0" style="transform-origin: 249.5px 322px;">
    <path d="M96 585Q152 666 249 666Q297 666 345 640T423 548Q460 465 460 320Q460 165 417 83Q397 41 362 16T301 -15T250 -22Q224 -22 198 -16T137 16T82 83Q39 165 39 320Q39 494 96 585ZM321 597Q291 629 250 629Q208 629 178 597Q153 571 145 525T137 333Q137 175 145 125T181 46Q209 16 250 16Q290 16 318 46Q347 76 354 130T362 333Q362 478 354 524T321 597Z" style="fill: rgb(255, 255, 255);"/>
  </g>
  <g transform="matrix(0.707000017166, 0, 0, -0.707000017166, 2697.280407246592, -1576.252498747824)" stroke="currentColor" fill="currentColor" stroke-width="0" style="transform-origin: 174.5px 307.5px;">
    <g data-mml-node="mi">
      <path d="M26 385Q19 392 19 395Q19 399 22 411T27 425Q29 430 36 430T87 431H140L159 511Q162 522 166 540T173 566T179 586T187 603T197 615T211 624T229 626Q247 625 254 615T261 596Q261 589 252 549T232 470L222 433Q222 431 272 431H323Q330 424 330 420Q330 398 317 385H210L174 240Q135 80 135 68Q135 26 162 26Q197 26 230 60T283 144Q285 150 288 151T303 153H307Q322 153 322 145Q322 142 319 133Q314 117 301 95T267 48T216 6T155 -11Q125 -11 98 4T59 56Q57 64 57 83V101L92 241Q127 382 128 383Q128 385 77 385H26Z" style="fill: rgb(255, 255, 255);"/>
    </g>
  </g>
  <g data-mml-node="mo" transform="matrix(0, 0.7070000171661377, 0.7070000171661377, 0, 2694.959716796875, -2048.989990234375)" stroke="currentColor" fill="currentColor" stroke-width="0">
    <path d="M95 178Q89 178 81 186T72 200T103 230T169 280T207 309Q209 311 212 311H213Q219 311 227 294T281 177Q300 134 312 108L397 -77Q398 -77 501 136T707 565T814 786Q820 800 834 800Q841 800 846 794T853 782V776L620 293L385 -193Q381 -200 366 -200Q357 -200 354 -197Q352 -195 256 15L160 225L144 214Q129 202 113 190T95 178Z" style="fill: rgb(255, 255, 255);"/>
  </g>
  <rect width="424.935" height="29.977" x="1004.07" y="576.205" style="fill: rgb(255, 255, 255);" transform="matrix(0, 1, 1, 0, 2654.378173828125, -2465.10009765625)" stroke="currentColor" stroke-width="0"/>
  <g data-mml-node="mi" transform="matrix(0.7070000171661377, 0, 0, -0.7070000171661377, 2706.768798828125, -49.97291564941406)" stroke="currentColor" fill="currentColor" stroke-width="0">
    <path d="M39 168Q39 225 58 272T107 350T174 402T244 433T307 442H310Q355 442 388 420T421 355Q421 265 310 237Q261 224 176 223Q139 223 138 221Q138 219 132 186T125 128Q125 81 146 54T209 26T302 45T394 111Q403 121 406 121Q410 121 419 112T429 98T420 82T390 55T344 24T281 -1T205 -11Q126 -11 83 42T39 168ZM373 353Q367 405 305 405Q272 405 244 391T199 357T170 316T154 280T149 261Q149 260 169 260Q282 260 327 284T373 353Z" style="fill: rgb(255, 255, 255);"/>
  </g>
  <g data-mml-node="mo" transform="matrix(0, 0.4998490512371063, 0.4998490512371063, 0, 3014.156494140625, -996.252685546875)" stroke="currentColor" fill="currentColor" stroke-width="0">
    <path d="M84 237T84 250T98 270H679Q694 262 694 250T679 230H98Q84 237 84 250Z" style="fill: rgb(255, 255, 255);"/>
  </g>
  <g data-mml-node="mi" transform="matrix(0.499849110842, 0, 0, -0.499849110842, 2976.44148143787, -737.412326564029)" stroke="currentColor" fill="currentColor" stroke-width="0" style="transform-origin: 174.5px 307.5px;">
    <path d="M26 385Q19 392 19 395Q19 399 22 411T27 425Q29 430 36 430T87 431H140L159 511Q162 522 166 540T173 566T179 586T187 603T197 615T211 624T229 626Q247 625 254 615T261 596Q261 589 252 549T232 470L222 433Q222 431 272 431H323Q330 424 330 420Q330 398 317 385H210L174 240Q135 80 135 68Q135 26 162 26Q197 26 230 60T283 144Q285 150 288 151T303 153H307Q322 153 322 145Q322 142 319 133Q314 117 301 95T267 48T216 6T155 -11Q125 -11 98 4T59 56Q57 64 57 83V101L92 241Q127 382 128 383Q128 385 77 385H26Z" style="fill: rgb(255, 255, 255);"/>
  </g>
  <g data-mml-node="mi" transform="matrix(0.707000017166, 0, 0, -0.707000017166, 2602.889555339811, -39.830382823944)" stroke="currentColor" fill="currentColor" stroke-width="0" style="transform-origin: 278px 342px;">
    <path d="M366 683Q367 683 438 688T511 694Q523 694 523 686Q523 679 450 384T375 83T374 68Q374 26 402 26Q411 27 422 35Q443 55 463 131Q469 151 473 152Q475 153 483 153H487H491Q506 153 506 145Q506 140 503 129Q490 79 473 48T445 8T417 -8Q409 -10 393 -10Q359 -10 336 5T306 36L300 51Q299 52 296 50Q294 48 292 46Q233 -10 172 -10Q117 -10 75 30T33 157Q33 205 53 255T101 341Q148 398 195 420T280 442Q336 442 364 400Q369 394 369 396Q370 400 396 505T424 616Q424 629 417 632T378 637H357Q351 643 351 645T353 664Q358 683 366 683ZM352 326Q329 405 277 405Q242 405 210 374T160 293Q131 214 119 129Q119 126 119 118T118 106Q118 61 136 44T179 26Q233 26 290 98L298 109L352 326Z" style="fill: rgb(255, 255, 255);"/>
  </g>
  <g data-mml-node="mi" transform="matrix(0.707000017166, 0, 0, -0.707000017166, 2696.336071309092, 607.724884034156)" stroke="currentColor" fill="currentColor" stroke-width="0" style="transform-origin: 174.5px 307.5px;">
    <path d="M26 385Q19 392 19 395Q19 399 22 411T27 425Q29 430 36 430T87 431H140L159 511Q162 522 166 540T173 566T179 586T187 603T197 615T211 624T229 626Q247 625 254 615T261 596Q261 589 252 549T232 470L222 433Q222 431 272 431H323Q330 424 330 420Q330 398 317 385H210L174 240Q135 80 135 68Q135 26 162 26Q197 26 230 60T283 144Q285 150 288 151T303 153H307Q322 153 322 145Q322 142 319 133Q314 117 301 95T267 48T216 6T155 -11Q125 -11 98 4T59 56Q57 64 57 83V101L92 241Q127 382 128 383Q128 385 77 385H26Z" style="fill: rgb(255, 255, 255);"/>
  </g>
  <g data-mml-node="mo" transform="matrix(0, 1, 1, 0, 982.869140625, 1440.444091796875)" style="transform-origin: 497.5px 250.5px;" stroke="currentColor" fill="currentColor" stroke-width="0">
    <path d="M758 -1237T758 -1240T752 -1249H736Q718 -1249 717 -1248Q711 -1245 672 -1199Q237 -706 237 251T672 1700Q697 1730 716 1749Q718 1750 735 1750H752Q758 1744 758 1741Q758 1737 740 1713T689 1644T619 1537T540 1380T463 1176Q348 802 348 251Q348 -242 441 -599T744 -1218Q758 -1237 758 -1240Z" style="fill: rgb(255, 255, 255);"/>
  </g>
  <g data-mml-node="mo" transform="matrix(0, 1, 1, 0, 982.869140625, 2232.443115234375)" style="transform-origin: 497.5px 250.5px;" stroke="currentColor" fill="currentColor" stroke-width="0">
    <path d="M758 -1237T758 -1240T752 -1249H736Q718 -1249 717 -1248Q711 -1245 672 -1199Q237 -706 237 251T672 1700Q697 1730 716 1749Q718 1750 735 1750H752Q758 1744 758 1741Q758 1737 740 1713T689 1644T619 1537T540 1380T463 1176Q348 802 348 251Q348 -242 441 -599T744 -1218Q758 -1237 758 -1240Z" style="fill: rgb(255, 255, 255);"/>
  </g>
  <g data-mml-node="mo" transform="matrix(1, 0, 0, -1, 709.726806640625, 3960.858154296874)" stroke="currentColor" fill="currentColor" stroke-width="0">
    <path d="M60 948Q63 950 665 950H1267L1325 815Q1384 677 1388 669H1348L1341 683Q1320 724 1285 761Q1235 809 1174 838T1033 881T882 898T699 902H574H543H251L259 891Q722 258 724 252Q725 250 724 246Q721 243 460 -56L196 -356Q196 -357 407 -357Q459 -357 548 -357T676 -358Q812 -358 896 -353T1063 -332T1204 -283T1307 -196Q1328 -170 1348 -124H1388Q1388 -125 1381 -145T1356 -210T1325 -294L1267 -449L666 -450Q64 -450 61 -448Q55 -446 55 -439Q55 -437 57 -433L590 177Q590 178 557 222T452 366T322 544L56 909L55 924Q55 945 60 948Z" style="fill: rgb(255, 255, 255);"/>
  </g>
  <g transform="matrix(1, 0, 0, -1, 4025.11669921875, -974.034423828125)" stroke="currentColor" fill="currentColor" stroke-width="0">
    <g data-mml-node="mi" transform="matrix(0.707, 0, 0, 0.707, -1806.205078, -4283.334473)" style="transform-origin: 278.5px 215.5px;">
      <path d="M52 289Q59 331 106 386T222 442Q257 442 286 424T329 379Q371 442 430 442Q467 442 494 420T522 361Q522 332 508 314T481 292T458 288Q439 288 427 299T415 328Q415 374 465 391Q454 404 425 404Q412 404 406 402Q368 386 350 336Q290 115 290 78Q290 50 306 38T341 26Q378 26 414 59T463 140Q466 150 469 151T485 153H489Q504 153 504 145Q504 144 502 134Q486 77 440 33T333 -11Q263 -11 227 52Q186 -10 133 -10H127Q78 -10 57 16T35 71Q35 103 54 123T99 143Q142 143 142 101Q142 81 130 66T107 46T94 41L91 40Q91 39 97 36T113 29T132 26Q168 26 194 71Q203 87 217 139T245 247T261 313Q266 340 266 352Q266 380 251 392T217 404Q177 404 142 372T93 290Q91 281 88 280T72 278H58Q52 284 52 289Z" style="fill: rgb(255, 255, 255);"/>
    </g>
    <g data-mml-node="mo" transform="matrix(0, -0.707, 0.707, 0, -1704.081787, -4335.242187)">
      <path d="M56 347Q56 360 70 367H707Q722 359 722 347Q722 336 708 328L390 327H72Q56 332 56 347ZM56 153Q56 168 72 173H708Q722 163 722 153Q722 140 707 133H70Q56 140 56 153Z" style="fill: rgb(255, 255, 255);"/>
    </g>
    <g data-mml-node="mn" transform="matrix(0, -0.707, 0.707, 0, -2232.429932, -5522.414062)">
      <path d="M -581 1262 C -543.667 1316 -492.667 1343 -428 1343 C -396 1343 -364 1334.333 -332 1317 C -300 1299.667 -274 1269 -254 1225 C -229.333 1169.667 -217 1093.667 -217 997 C -217 893.667 -231.333 814.667 -260 760 C -273.333 732 -291.667 709.667 -315 693 C -338.333 676.333 -358.667 666 -376 662 C -393.333 658 -410.333 655.667 -427 655 C -444.333 655 -461.667 657 -479 661 C -496.333 665 -516.667 675.667 -540 693 C -563.333 710.333 -581.667 732.667 -595 760 C -623.667 814.667 -638 893.667 -638 997 C -638 1113 -619 1201.333 -581 1262 Z M -356 1274 C -376 1295.333 -399.667 1306 -427 1306 C -455 1306 -479 1295.333 -499 1274 C -515.667 1256.667 -526.667 1232.667 -532 1202 C -537.333 1171.333 -540 1107.333 -540 1010 C -540 904.667 -537.333 835.333 -532 802 C -526.667 768.667 -514.667 742.333 -496 723 C -477.333 703 -454.333 693 -427 693 C -400.333 693 -377.667 703 -359 723 C -339.667 743 -327.667 771 -323 807 C -318.333 843 -315.667 910.667 -315 1010 C -315 1106.667 -317.667 1170.333 -323 1201 C -328.333 1231.667 -339.333 1256 -356 1274 Z" style="transform-box: fill-box; transform-origin: 50% 50%; fill: rgb(255, 255, 255);" transform="matrix(0, 1, -1, 0, -0.000203, 0.000251)"/>
    </g>
  </g>
  <g data-mml-node="mi" transform="matrix(0.7070000171661377, 0, 0, -0.7070000171661377, 36.96994400024414, 3914.173583984374)" stroke="currentColor" fill="currentColor" stroke-width="0">
    <path d="M55 217Q55 305 111 373T254 442Q342 442 419 381Q457 350 493 303L507 284L514 294Q618 442 747 442Q833 442 888 374T944 214Q944 128 889 59T743 -11Q657 -11 580 50Q542 81 506 128L492 147L485 137Q381 -11 252 -11Q166 -11 111 57T55 217ZM907 217Q907 285 869 341T761 397Q740 397 720 392T682 378T648 359T619 335T594 310T574 285T559 263T548 246L543 238L574 198Q605 158 622 138T664 94T714 61T765 51Q827 51 867 100T907 217ZM92 214Q92 145 131 89T239 33Q357 33 456 193L425 233Q364 312 334 337Q285 380 233 380Q171 380 132 331T92 214Z" style="fill: rgb(255, 255, 255);"/>
  </g>
  <g data-mml-node="mi" transform="matrix(1, 0, 0, -1, 194.80966186523438, 11869.55078125)" stroke="currentColor" fill="currentColor" stroke-width="0">
    <path d="M52 289Q59 331 106 386T222 442Q257 442 286 424T329 379Q371 442 430 442Q467 442 494 420T522 361Q522 332 508 314T481 292T458 288Q439 288 427 299T415 328Q415 374 465 391Q454 404 425 404Q412 404 406 402Q368 386 350 336Q290 115 290 78Q290 50 306 38T341 26Q378 26 414 59T463 140Q466 150 469 151T485 153H489Q504 153 504 145Q504 144 502 134Q486 77 440 33T333 -11Q263 -11 227 52Q186 -10 133 -10H127Q78 -10 57 16T35 71Q35 103 54 123T99 143Q142 143 142 101Q142 81 130 66T107 46T94 41L91 40Q91 39 97 36T113 29T132 26Q168 26 194 71Q203 87 217 139T245 247T261 313Q266 340 266 352Q266 380 251 392T217 404Q177 404 142 372T93 290Q91 281 88 280T72 278H58Q52 284 52 289Z" style="fill: rgb(255, 255, 255);"/>
  </g>
  <g data-mml-node="mn" transform="matrix(0.707000017166, 0, 0, -0.707000017166, 704.064115763664, 9148.848879687313)" style="transform-origin: 249.5px 338.5px;" stroke="currentColor" fill="currentColor" stroke-width="0">
    <path d="M462 0Q444 3 333 3Q217 3 199 0H190V46H221Q241 46 248 46T265 48T279 53T286 61Q287 63 287 115V165H28V211L179 442Q332 674 334 675Q336 677 355 677H373L379 671V211H471V165H379V114Q379 73 379 66T385 54Q393 47 442 46H471V0H462ZM293 211V545L74 212L183 211H293Z" style="fill: rgb(255, 255, 255);"/>
  </g>
  <g data-mml-node="mi" transform="matrix(0.707000017166, 0, 0, -0.707000017166, 676.435081482887, 9791.928128059884)" style="transform-origin: 300.5px 215.527px;" stroke="currentColor" fill="currentColor" stroke-width="0">
    <path d="M21 287Q22 293 24 303T36 341T56 388T89 425T135 442Q171 442 195 424T225 390T231 369Q231 367 232 367L243 378Q304 442 382 442Q436 442 469 415T503 336T465 179T427 52Q427 26 444 26Q450 26 453 27Q482 32 505 65T540 145Q542 153 560 153Q580 153 580 145Q580 144 576 130Q568 101 554 73T508 17T439 -10Q392 -10 371 17T350 73Q350 92 386 193T423 345Q423 404 379 404H374Q288 404 229 303L222 291L189 157Q156 26 151 16Q138 -11 108 -11Q95 -11 87 -5T76 7T74 17Q74 30 112 180T152 343Q153 348 153 366Q153 405 129 405Q91 405 66 305Q60 285 60 284Q58 278 41 278H27Q21 284 21 287Z" style="fill: rgb(255, 255, 255);"/>
  </g>
  <g data-mml-node="mo" transform="matrix(0, 0.7070000171661377, 0.7070000171661377, 0, 797.4005126953125, 10308.0458984375)" stroke="currentColor" fill="currentColor" stroke-width="0">
    <path d="M56 237T56 250T70 270H369V420L370 570Q380 583 389 583Q402 583 409 568V270H707Q722 262 722 250T707 230H409V-68Q401 -82 391 -82H389H387Q375 -82 369 -68V230H70Q56 237 56 250Z" style="fill: rgb(255, 255, 255);"/>
  </g>
  <g data-mml-node="mn" transform="matrix(0.707000017166, 0, 0, -0.707000017166, 717.662016154289, 10920.488528124813)" style="transform-origin: 249.5px 338.5px;" stroke="currentColor" fill="currentColor" stroke-width="0">
    <path d="M462 0Q444 3 333 3Q217 3 199 0H190V46H221Q241 46 248 46T265 48T279 53T286 61Q287 63 287 115V165H28V211L179 442Q332 674 334 675Q336 677 355 677H373L379 671V211H471V165H379V114Q379 73 379 66T385 54Q393 47 442 46H471V0H462ZM293 211V545L74 212L183 211H293Z" style="fill: rgb(255, 255, 255);"/>
  </g>
  <g data-mml-node="mo" transform="matrix(0, 1, 1, 0, 1827.22314453125, 4840.593749999999)" stroke="currentColor" fill="currentColor" stroke-width="0">
    <path d="M94 250Q94 319 104 381T127 488T164 576T202 643T244 695T277 729T302 750H315H319Q333 750 333 741Q333 738 316 720T275 667T226 581T184 443T167 250T184 58T225 -81T274 -167T316 -220T333 -241Q333 -250 318 -250H315H302L274 -226Q180 -141 137 -14T94 250Z" style="fill: rgb(255, 255, 255);"/>
  </g>
  <g data-mml-node="mn" transform="matrix(0, 1, 1, 0, 2061.401123046875, 5000.527343749999)" stroke="currentColor" fill="currentColor" stroke-width="0">
    <path d="M 418.999 108 C 400.999 108 386.666 114 375.999 126 C 365.333 138 359.999 152.667 359.999 170 C 359.999 217.333 377.666 258.333 412.999 293 C 448.333 327.667 492.333 345 544.999 345 C 605.666 345 656.333 326.333 696.999 289 C 737.666 251.667 758.333 203.333 758.999 144 C 758.999 115.333 752.333 88 738.999 62 C 725.666 36 709.666 13.333 690.999 -6 C 672.333 -25.333 645.666 -50 610.999 -80 C 586.999 -100.667 553.666 -131.333 510.999 -172 L 451.999 -228 L 527.999 -229 C 632.666 -229 688.333 -227.333 694.999 -224 C 699.666 -222.667 707.666 -193 718.999 -135 L 718.999 -132 L 758.999 -132 L 758.999 -135 C 758.333 -137 753.999 -167.333 745.999 -226 C 737.999 -284.667 732.999 -315.333 730.999 -318 L 730.999 -321 L 359.999 -321 L 359.999 -302 L 359.999 -290 C 359.999 -285.333 361.999 -280.333 365.999 -275 C 369.999 -269.667 379.999 -258 395.999 -240 C 415.333 -218.667 431.999 -200 445.999 -184 C 451.999 -177.333 463.333 -165 479.999 -147 C 496.666 -129 507.999 -116.667 513.999 -110 C 519.999 -103.333 529.666 -92.333 542.999 -77 C 556.333 -61.667 565.666 -50.333 570.999 -43 C 576.333 -35.667 583.999 -25.667 593.999 -13 C 603.999 -0.333 610.999 10.333 614.999 19 C 618.999 27.667 623.999 37.333 629.999 48 C 635.999 58.667 640.333 69.333 642.999 80 C 645.666 90.667 647.999 100.667 649.999 110 C 651.999 119.333 652.999 130.333 652.999 143 C 652.999 185 641.666 221.333 618.999 252 C 596.333 282.667 563.999 298 521.999 298 C 499.999 298 480.666 292.333 463.999 281 C 447.333 269.667 435.666 258.667 428.999 248 C 422.333 237.333 418.999 231 418.999 229 C 418.999 228.333 420.666 228 423.999 228 C 435.999 228 448.333 223.333 460.999 214 C 473.666 204.667 479.999 189.333 479.999 168 C 479.999 151.333 474.666 137.333 463.999 126 C 453.333 114.667 438.333 108.667 418.999 108 Z" style="transform-box: fill-box; transform-origin: 50% 50%; fill: rgb(255, 255, 255);" transform="matrix(0, 1, -1, 0, -0.000003, -0.000019)"/>
  </g>
  <g data-mml-node="mi" transform="matrix(1, 0, 0, -1, 1778.819091796875, 6054.546142578125)" stroke="currentColor" fill="currentColor" stroke-width="0" style="transform-origin: 300.5px 215.526px;">
    <path d="M21 287Q22 293 24 303T36 341T56 388T89 425T135 442Q171 442 195 424T225 390T231 369Q231 367 232 367L243 378Q304 442 382 442Q436 442 469 415T503 336T465 179T427 52Q427 26 444 26Q450 26 453 27Q482 32 505 65T540 145Q542 153 560 153Q580 153 580 145Q580 144 576 130Q568 101 554 73T508 17T439 -10Q392 -10 371 17T350 73Q350 92 386 193T423 345Q423 404 379 404H374Q288 404 229 303L222 291L189 157Q156 26 151 16Q138 -11 108 -11Q95 -11 87 -5T76 7T74 17Q74 30 112 180T152 343Q153 348 153 366Q153 405 129 405Q91 405 66 305Q60 285 60 284Q58 278 41 278H27Q21 284 21 287Z" style="fill: rgb(255, 255, 255);"/>
  </g>
  <g data-mml-node="mo" transform="matrix(0, 1, 1, 0, 1827.22314453125, 6672.672851562499)" stroke="currentColor" fill="currentColor" stroke-width="0">
    <path d="M56 237T56 250T70 270H369V420L370 570Q380 583 389 583Q402 583 409 568V270H707Q722 262 722 250T707 230H409V-68Q401 -82 391 -82H389H387Q375 -82 369 -68V230H70Q56 237 56 250Z" style="fill: rgb(255, 255, 255);"/>
  </g>
  <g data-mml-node="mn" transform="matrix(1, 0, 0, -1, 1827.4970703125, 7624.111328125)" stroke="currentColor" fill="currentColor" stroke-width="0" style="transform-origin: 255px 333px;">
    <path d="M213 578L200 573Q186 568 160 563T102 556H83V602H102Q149 604 189 617T245 641T273 663Q275 666 285 666Q294 666 302 660V361L303 61Q310 54 315 52T339 48T401 46H427V0H416Q395 3 257 3Q121 3 100 0H88V46H114Q136 46 152 46T177 47T193 50T201 52T207 57T213 61V578Z" style="fill: rgb(255, 255, 255);"/>
  </g>
  <g data-mml-node="mo" transform="matrix(0, 1, 1, 0, 1827.22314453125, 8329.20703125)" stroke="currentColor" fill="currentColor" stroke-width="0">
    <path d="M60 749L64 750Q69 750 74 750H86L114 726Q208 641 251 514T294 250Q294 182 284 119T261 12T224 -76T186 -143T145 -194T113 -227T90 -246Q87 -249 86 -250H74Q66 -250 63 -250T58 -247T55 -238Q56 -237 66 -225Q221 -64 221 250T66 725Q56 737 55 738Q55 746 60 749Z" style="fill: rgb(255, 255, 255);"/>
  </g>
  <g data-mml-node="mo" transform="matrix(0, 1, 1, 0, 1827.22314453125, 8718.20703125)" stroke="currentColor" fill="currentColor" stroke-width="0">
    <path d="M94 250Q94 319 104 381T127 488T164 576T202 643T244 695T277 729T302 750H315H319Q333 750 333 741Q333 738 316 720T275 667T226 581T184 443T167 250T184 58T225 -81T274 -167T316 -220T333 -241Q333 -250 318 -250H315H302L274 -226Q180 -141 137 -14T94 250Z" style="fill: rgb(255, 255, 255);"/>
  </g>
  <g data-mml-node="mn" transform="matrix(1, 0, 0, -1, 1770.294921875, 9036.4482421875)" stroke="currentColor" fill="currentColor" stroke-width="0" style="transform-origin: 249.5px 338.5px;">
    <path d="M462 0Q444 3 333 3Q217 3 199 0H190V46H221Q241 46 248 46T265 48T279 53T286 61Q287 63 287 115V165H28V211L179 442Q332 674 334 675Q336 677 355 677H373L379 671V211H471V165H379V114Q379 73 379 66T385 54Q393 47 442 46H471V0H462ZM293 211V545L74 212L183 211H293Z" style="fill: rgb(255, 255, 255);"/>
  </g>
  <g data-mml-node="mi" transform="matrix(1, 0, 0, -1, 1760.490966796875, 9911.074462890623)" stroke="currentColor" fill="currentColor" stroke-width="0" style="transform-origin: 300.5px 215.526px;">
    <path d="M21 287Q22 293 24 303T36 341T56 388T89 425T135 442Q171 442 195 424T225 390T231 369Q231 367 232 367L243 378Q304 442 382 442Q436 442 469 415T503 336T465 179T427 52Q427 26 444 26Q450 26 453 27Q482 32 505 65T540 145Q542 153 560 153Q580 153 580 145Q580 144 576 130Q568 101 554 73T508 17T439 -10Q392 -10 371 17T350 73Q350 92 386 193T423 345Q423 404 379 404H374Q288 404 229 303L222 291L189 157Q156 26 151 16Q138 -11 108 -11Q95 -11 87 -5T76 7T74 17Q74 30 112 180T152 343Q153 348 153 366Q153 405 129 405Q91 405 66 305Q60 285 60 284Q58 278 41 278H27Q21 284 21 287Z" style="fill: rgb(255, 255, 255);"/>
  </g>
  <g data-mml-node="mo" transform="matrix(0, 1, 1, 0, 1827.22314453125, 10538.953125)" stroke="currentColor" fill="currentColor" stroke-width="0">
    <path d="M56 237T56 250T70 270H369V420L370 570Q380 583 389 583Q402 583 409 568V270H707Q722 262 722 250T707 230H409V-68Q401 -82 391 -82H389H387Q375 -82 369 -68V230H70Q56 237 56 250Z" style="fill: rgb(255, 255, 255);"/>
  </g>
  <g data-mml-node="mn" transform="matrix(1, 0, 0, -1, 1826.259521484375, 11555.834899902344)" stroke="currentColor" fill="currentColor" stroke-width="0" style="transform-origin: 249.5px 321.499px;">
    <path d="M127 463Q100 463 85 480T69 524Q69 579 117 622T233 665Q268 665 277 664Q351 652 390 611T430 522Q430 470 396 421T302 350L299 348Q299 347 308 345T337 336T375 315Q457 262 457 175Q457 96 395 37T238 -22Q158 -22 100 21T42 130Q42 158 60 175T105 193Q133 193 151 175T169 130Q169 119 166 110T159 94T148 82T136 74T126 70T118 67L114 66Q165 21 238 21Q293 21 321 74Q338 107 338 175V195Q338 290 274 322Q259 328 213 329L171 330L168 332Q166 335 166 348Q166 366 174 366Q202 366 232 371Q266 376 294 413T322 525V533Q322 590 287 612Q265 626 240 626Q208 626 181 615T143 592T132 580H135Q138 579 143 578T153 573T165 566T175 555T183 540T186 520Q186 498 172 481T127 463Z" style="fill: rgb(255, 255, 255);"/>
  </g>
  <g data-mml-node="mo" transform="matrix(0, 1, 1, 0, 1827.22314453125, 12250.6826171875)" stroke="currentColor" fill="currentColor" stroke-width="0">
    <path d="M60 749L64 750Q69 750 74 750H86L114 726Q208 641 251 514T294 250Q294 182 284 119T261 12T224 -76T186 -143T145 -194T113 -227T90 -246Q87 -249 86 -250H74Q66 -250 63 -250T58 -247T55 -238Q56 -237 66 -225Q221 -64 221 250T66 725Q56 737 55 738Q55 746 60 749Z" style="fill: rgb(255, 255, 255);"/>
  </g>
  <g data-mml-node="mo" transform="matrix(0, 1, 1, 0, 1827.22314453125, 12639.6826171875)" stroke="currentColor" fill="currentColor" stroke-width="0">
    <path d="M94 250Q94 319 104 381T127 488T164 576T202 643T244 695T277 729T302 750H315H319Q333 750 333 741Q333 738 316 720T275 667T226 581T184 443T167 250T184 58T225 -81T274 -167T316 -220T333 -241Q333 -250 318 -250H315H302L274 -226Q180 -141 137 -14T94 250Z" style="fill: rgb(255, 255, 255);"/>
  </g>
  <g data-mml-node="mn" transform="matrix(1, 0, 0, -1, 1811.316650390625, 12981.0712890625)" stroke="currentColor" fill="currentColor" stroke-width="0" style="transform-origin: 249.5px 338.5px;">
    <path d="M462 0Q444 3 333 3Q217 3 199 0H190V46H221Q241 46 248 46T265 48T279 53T286 61Q287 63 287 115V165H28V211L179 442Q332 674 334 675Q336 677 355 677H373L379 671V211H471V165H379V114Q379 73 379 66T385 54Q393 47 442 46H471V0H462ZM293 211V545L74 212L183 211H293Z" style="fill: rgb(255, 255, 255);"/>
  </g>
  <g data-mml-node="mi" transform="matrix(1, 0, 0, -1, 1755.36328125, 13872.880126953123)" stroke="currentColor" fill="currentColor" stroke-width="0" style="transform-origin: 300.5px 215.526px;">
    <path d="M21 287Q22 293 24 303T36 341T56 388T89 425T135 442Q171 442 195 424T225 390T231 369Q231 367 232 367L243 378Q304 442 382 442Q436 442 469 415T503 336T465 179T427 52Q427 26 444 26Q450 26 453 27Q482 32 505 65T540 145Q542 153 560 153Q580 153 580 145Q580 144 576 130Q568 101 554 73T508 17T439 -10Q392 -10 371 17T350 73Q350 92 386 193T423 345Q423 404 379 404H374Q288 404 229 303L222 291L189 157Q156 26 151 16Q138 -11 108 -11Q95 -11 87 -5T76 7T74 17Q74 30 112 180T152 343Q153 348 153 366Q153 405 129 405Q91 405 66 305Q60 285 60 284Q58 278 41 278H27Q21 284 21 287Z" style="fill: rgb(255, 255, 255);"/>
  </g>
  <g data-mml-node="mo" transform="matrix(0, 1, 1, 0, 1827.22314453125, 14500.1044921875)" stroke="currentColor" fill="currentColor" stroke-width="0">
    <path d="M56 237T56 250T70 270H369V420L370 570Q380 583 389 583Q402 583 409 568V270H707Q722 262 722 250T707 230H409V-68Q401 -82 391 -82H389H387Q375 -82 369 -68V230H70Q56 237 56 250Z" style="fill: rgb(255, 255, 255);"/>
  </g>
  <g data-mml-node="mn" transform="matrix(1, 0, 0, -1, 1811.316650390625, 15411.3056640625)" stroke="currentColor" fill="currentColor" stroke-width="0" style="transform-origin: 249.5px 338.5px;">
    <path d="M462 0Q444 3 333 3Q217 3 199 0H190V46H221Q241 46 248 46T265 48T279 53T286 61Q287 63 287 115V165H28V211L179 442Q332 674 334 675Q336 677 355 677H373L379 671V211H471V165H379V114Q379 73 379 66T385 54Q393 47 442 46H471V0H462ZM293 211V545L74 212L183 211H293Z" style="fill: rgb(255, 255, 255);"/>
  </g>
  <g data-mml-node="mo" transform="matrix(0, 1, 1, 0, 1827.22314453125, 16131.4384765625)" stroke="currentColor" fill="currentColor" stroke-width="0">
    <path d="M60 749L64 750Q69 750 74 750H86L114 726Q208 641 251 514T294 250Q294 182 284 119T261 12T224 -76T186 -143T145 -194T113 -227T90 -246Q87 -249 86 -250H74Q66 -250 63 -250T58 -247T55 -238Q56 -237 66 -225Q221 -64 221 250T66 725Q56 737 55 738Q55 746 60 749Z" style="fill: rgb(255, 255, 255);"/>
  </g>
  <rect width="11790.117" height="60" x="-677.709" y="-7529.727" style="fill: rgb(255, 255, 255); transform-origin: 5217.34px -7499.73px;" transform="matrix(0, 1, 1, 0, -3829.076171874913, 18203.379882812285)" stroke="currentColor" stroke-width="0"/>
  <g data-mml-node="mo" transform="matrix(0, 1, 1, 0, 1186.369140625, 16767.388671875)" style="transform-origin: 293.5px 250px;" stroke="currentColor" fill="currentColor" stroke-width="0">
    <path d="M33 1741Q33 1750 51 1750H60H65Q73 1750 81 1743T119 1700Q554 1207 554 251Q554 -707 119 -1199Q76 -1250 66 -1250Q65 -1250 62 -1250T56 -1249Q55 -1249 53 -1249T49 -1250Q33 -1250 33 -1239Q33 -1236 50 -1214T98 -1150T163 -1052T238 -910T311 -727Q443 -335 443 251Q443 402 436 532T405 831T339 1142T224 1438T50 1716Q33 1737 33 1741Z" style="fill: rgb(255, 255, 255);"/>
  </g>
  <g data-mml-node="mo" transform="matrix(0, 1, 1, 0, 1186.369140625, 16767.388671875)" style="transform-origin: 293.5px 250px;" stroke="currentColor" fill="currentColor" stroke-width="0">
    <path d="M33 1741Q33 1750 51 1750H60H65Q73 1750 81 1743T119 1700Q554 1207 554 251Q554 -707 119 -1199Q76 -1250 66 -1250Q65 -1250 62 -1250T56 -1249Q55 -1249 53 -1249T49 -1250Q33 -1250 33 -1239Q33 -1236 50 -1214T98 -1150T163 -1052T238 -910T311 -727Q443 -335 443 251Q443 402 436 532T405 831T339 1142T224 1438T50 1716Q33 1737 33 1741Z" style="fill: rgb(255, 255, 255);"/>
  </g>
  <path d="M 2862.804 17738.376 C 2859.976 17738.376 2853.613 17736.962 2843.715 17734.134 C 2833.817 17731.306 2828.632 17728.478 2828.161 17725.65 C 2828.161 17722.35 2841.123 17667.676 2867.046 17561.625 C 2892.969 17455.575 2907.345 17400.193 2910.173 17395.48 C 2917.243 17380.397 2929.498 17372.856 2946.937 17372.856 C 2956.364 17372.856 2966.262 17376.391 2976.631 17383.461 C 2987 17390.531 2992.185 17400.9 2992.185 17414.569 C 2992.185 17416.925 2991.714 17420.46 2990.771 17425.174 C 2990.3 17428.473 2969.797 17481.027 2929.262 17582.835 C 2888.727 17684.644 2867.753 17736.019 2866.339 17736.962 C 2864.925 17737.904 2863.747 17738.376 2862.804 17738.376 Z" style="fill: rgb(255, 255, 255); transform-origin: 2910.17px 17555.6px;" transform="matrix(0.666818022728, 0.745221018791, -0.745221018791, 0.666818022728, 0.025364217298, 0.010403990507)"/>
  <path d="M 2863.916 17933.733 C 2861.088 17933.733 2854.725 17932.319 2844.827 17929.491 C 2834.929 17926.663 2829.744 17923.835 2829.273 17921.007 C 2829.273 17917.707 2842.235 17863.033 2868.158 17756.983 C 2894.081 17650.933 2908.457 17595.551 2911.285 17590.838 C 2918.355 17575.755 2930.61 17568.214 2948.049 17568.214 C 2957.476 17568.214 2967.374 17571.749 2977.743 17578.819 C 2988.112 17585.889 2993.297 17596.258 2993.297 17609.927 C 2993.297 17612.283 2992.826 17615.818 2991.883 17620.532 C 2991.412 17623.831 2970.909 17676.385 2930.374 17778.193 C 2889.839 17880.001 2868.865 17931.376 2867.451 17932.319 C 2866.037 17933.261 2864.859 17933.733 2863.916 17933.733 Z" style="fill: rgb(255, 255, 255); transform-origin: 2911.28px 17750.9px;" transform="matrix(0.666818022728, 0.745221018791, -0.745221018791, 0.666818022728, 0.024382071486, 0.010875395084)"/>
  <g data-mml-node="mo" transform="matrix(0, 1, 1, 0, 1171.248046875, 17967.80078125)" style="transform-origin: 293.5px 250px;" stroke="currentColor" fill="currentColor" stroke-width="0">
    <path d="M33 1741Q33 1750 51 1750H60H65Q73 1750 81 1743T119 1700Q554 1207 554 251Q554 -707 119 -1199Q76 -1250 66 -1250Q65 -1250 62 -1250T56 -1249Q55 -1249 53 -1249T49 -1250Q33 -1250 33 -1239Q33 -1236 50 -1214T98 -1150T163 -1052T238 -910T311 -727Q443 -335 443 251Q443 402 436 532T405 831T339 1142T224 1438T50 1716Q33 1737 33 1741Z" style="fill: rgb(255, 255, 255);"/>
  </g>
<script xmlns=""/><link xmlns=""/></svg>